<svg width="19" height="16" viewBox="0 0 19 16" fill="none" xmlns="http://www.w3.org/2000/svg">
<path d="M18.0657 13.515L10.5727 0.823249C10.2754 0.31253 9.74178 0 9.14721 0C8.55264 0 8.02668 0.304907 7.7294 0.823249L0.22868 13.515C-0.0762268 14.041 -0.0762268 14.6584 0.22868 15.1768C0.525965 15.6951 1.05955 16 1.65412 16H16.6479C17.2425 16 17.7761 15.6875 18.0734 15.1768C18.3707 14.6584 18.3707 14.0333 18.0734 13.515H18.0657ZM17.4102 14.8032C17.2501 15.0777 16.9681 15.2454 16.6479 15.2454H1.6465C1.32635 15.2454 1.04431 15.0777 0.884231 14.8032C0.724154 14.5212 0.724154 14.1858 0.884231 13.9038L8.38495 1.20438C8.7051 0.647928 9.58933 0.647928 9.90948 1.20438L17.4102 13.8961C17.5703 14.1782 17.5703 14.5136 17.4102 14.7956V14.8032ZM9.52835 9.90948H8.76608V5.33587H9.52835V9.90948ZM9.90948 12.1963C9.90948 12.6155 9.56646 12.9586 9.14721 12.9586C8.72797 12.9586 8.38495 12.6155 8.38495 12.1963C8.38495 11.777 8.72797 11.434 9.14721 11.434C9.56646 11.434 9.90948 11.777 9.90948 12.1963Z" fill="#CE0000"/>
</svg>
