<svg width="40" height="40" viewBox="0 0 40 40" fill="none" xmlns="http://www.w3.org/2000/svg">
<g clip-path="url(#clip0_503_2058)">
<path d="M40 20.1217C40 30.1034 32.6767 38.3784 23.1167 39.88V25.9417H27.765L28.65 20.175H23.1167V16.4334C23.1167 14.855 23.89 13.3184 26.3667 13.3184H28.8817V8.40837C28.8817 8.40837 26.5983 8.01837 24.4167 8.01837C19.86 8.01837 16.8833 10.78 16.8833 15.7784V20.1734H11.8183V25.94H16.8833V39.8784C7.325 38.375 0 30.1017 0 20.1217C0 9.0767 8.955 0.121704 20 0.121704C31.045 0.121704 40 9.07504 40 20.1217Z" fill="#382D2E"/>
</g>
<defs>
<clipPath id="clip0_503_2058">
<rect width="40" height="40" fill="white"/>
</clipPath>
</defs>
</svg>
