<svg width="56" height="56" viewBox="0 0 56 56" fill="none" xmlns="http://www.w3.org/2000/svg">
<path d="M50.1691 13.9979H40.2987C40.749 13.6899 41.176 13.3446 41.5704 12.9525C44.7205 9.95405 45.2479 6.00586 42.9145 2.89537C40.5157 -0.301455 35.9631 -0.950154 32.771 1.4463C30.3278 3.27806 28.8881 5.89852 28.0317 8.2063C27.1777 5.89852 25.7356 3.27806 23.2925 1.4463C20.0957 -0.950154 15.5454 -0.301455 13.149 2.89537C10.8155 6.00352 11.3452 9.95172 14.472 12.9315C14.8734 13.3329 15.3121 13.6829 15.7694 13.9979H5.83362C2.61813 13.9979 0 16.6137 0 19.8315V56H56.0028V19.8315C56.0028 16.6137 53.3846 13.9979 50.1691 13.9979ZM34.1687 3.31539C36.3388 1.68898 39.4213 2.13 41.0477 4.29544C42.6718 6.46321 42.2658 9.06734 39.9393 11.2818C37.8229 13.3982 34.2177 13.8976 32.1036 13.9979H29.1681V13.0412C29.3688 11.5758 30.3885 6.15053 34.1687 3.31539ZM16.1008 11.2608C13.7953 9.06734 13.3893 6.46088 15.0134 4.29544C16.6375 2.12767 19.7246 1.68664 21.8924 3.31539C25.5653 6.06653 26.5943 11.2561 26.8347 12.8965V13.9979H23.8432C21.7431 13.8952 18.2289 13.3889 16.1008 11.2608ZM5.83362 16.3314H26.718C25.5419 23.215 14.122 23.3317 14.0007 23.3317V25.6652C18.1589 25.6652 25.2386 24.2721 28.0014 19.5655C30.7642 24.2744 37.8439 25.6652 42.0021 25.6652V23.3317C41.8807 23.3317 30.4608 23.215 29.2848 16.3314H50.1691C52.0989 16.3314 53.6693 17.9018 53.6693 19.8315V41.9993H2.33345V19.8315C2.33345 17.9018 3.90386 16.3314 5.83362 16.3314ZM2.33345 53.6666V44.3328H53.6693V53.6666H2.33345Z" fill="#382D2E"/>
</svg>
