<svg width="57" height="56" viewBox="0 0 57 56" fill="none" xmlns="http://www.w3.org/2000/svg">
<path d="M54.7876 0.0560654C53.4467 0.112131 21.8515 1.56516 11.407 12.0097C2.70048 20.7162 2.43184 34.7138 10.601 43.745L0 54.3484L1.65159 56L12.255 45.3966C16.6281 49.3516 22.1645 51.3279 27.6986 51.3279C33.5972 51.3279 39.4981 49.0829 43.9903 44.5907C54.6451 33.9359 55.9556 2.59536 56.0047 1.26614L56.0537 0L54.7899 0.0537294L54.7876 0.0560654ZM42.3364 42.9391C34.5433 50.7322 22.0267 51.0008 13.9089 43.7404L38.1899 19.4594L36.5383 17.8078L12.2573 42.0888C4.99683 33.9686 5.26314 21.4544 13.0586 13.6613C21.7324 4.99216 47.5365 2.84999 53.6032 2.46221C53.2388 8.49858 51.1854 34.0924 42.3364 42.9391Z" fill="#382D2E"/>
</svg>
