<svg width="57" height="56" viewBox="0 0 57 56" fill="none" xmlns="http://www.w3.org/2000/svg">
<path d="M19.8793 46.6811L13.2536 33.4275L0 26.8018L13.2536 20.1762L19.8793 6.92256L26.5049 20.1762L39.7585 26.8018L26.5049 33.4275L19.8793 46.6811ZM5.22757 26.8018L14.9954 31.6857L19.8793 41.4535L24.7632 31.6857L34.531 26.8018L24.7632 21.9179L19.8793 12.1501L14.9954 21.9179L5.22757 26.8018ZM43.2584 56L38.9894 47.4643L30.4536 43.1953L38.9894 38.9286L43.2584 30.3905L47.5274 38.9286L56.0631 43.1953L47.5274 47.4643L43.2584 56ZM35.6812 43.1953L40.7334 45.7225L43.2584 50.7748L45.7833 45.7225L50.8355 43.1953L45.7833 40.6703L43.2584 35.6181L40.7334 40.6703L35.6812 43.1953ZM45.6267 20.9921L42.1268 13.9924L35.1295 10.4949L42.1268 6.99503L45.6267 0L49.1265 6.99971L56.1239 10.4996L49.1265 13.9971L45.6267 20.9968V20.9921ZM40.357 10.4949L43.8709 12.2507L45.6267 15.7622L47.3825 12.2507L50.8963 10.4949L47.3825 8.73911L45.6267 5.22757L43.8709 8.73911L40.357 10.4949Z" fill="#382D2E"/>
</svg>
